<svg width="168" height="59" viewBox="0 0 168 59" fill="none" xmlns="http://www.w3.org/2000/svg">
<path d="M8.244 46.5C7.852 46.052 7.44133 45.5853 7.012 45.1C6.58267 44.6147 6.20933 44.092 5.892 43.532C5.59333 42.972 5.444 42.356 5.444 41.684C5.444 40.844 5.67733 40.0693 6.144 39.36C6.61067 38.632 7.264 38.0533 8.104 37.624C8.944 37.1947 9.94267 36.98 11.1 36.98C12.2387 36.98 13.2093 37.204 14.012 37.652C14.8147 38.1 15.4213 38.6787 15.832 39.388C16.2427 40.0787 16.448 40.816 16.448 41.6C16.448 42.1973 16.3453 42.7293 16.14 43.196C15.9347 43.6627 15.636 44.1107 15.244 44.54C14.852 44.9693 14.376 45.3893 13.816 45.8C13.256 46.2107 12.6027 46.6587 11.856 47.144C11.352 47.4613 10.8107 47.76 10.232 48.04C9.672 48.3013 9.14 48.5813 8.636 48.88C8.132 49.1787 7.72133 49.5333 7.404 49.944C7.08667 50.3547 6.928 50.868 6.928 51.484C6.928 52.0067 7.05867 52.4827 7.32 52.912C7.6 53.3227 7.98267 53.6493 8.468 53.892C8.972 54.116 9.56 54.228 10.232 54.228C11.0533 54.228 11.856 54.06 12.64 53.724C13.4427 53.3693 14.208 52.8933 14.936 52.296C15.6827 51.68 16.392 50.98 17.064 50.196C17.736 49.3933 18.3707 48.5533 18.968 47.676L21.46 49.496C20.8067 50.4107 20.0787 51.3347 19.276 52.268C18.492 53.2013 17.6147 54.0507 16.644 54.816C15.692 55.5627 14.6467 56.1693 13.508 56.636C12.3693 57.1027 11.128 57.336 9.784 57.336C8.58933 57.336 7.488 57.112 6.48 56.664C5.472 56.216 4.66 55.5813 4.044 54.76C3.428 53.92 3.12 52.9307 3.12 51.792C3.12 50.9147 3.288 50.1587 3.624 49.524C3.96 48.8893 4.38933 48.348 4.912 47.9C5.43467 47.4333 6.004 47.0413 6.62 46.724C7.236 46.4067 7.824 46.136 8.384 45.912C8.96267 45.6693 9.448 45.4547 9.84 45.268C10.8853 44.7267 11.688 44.1667 12.248 43.588C12.808 42.9907 13.088 42.4213 13.088 41.88C13.088 41.5253 13.004 41.1987 12.836 40.9C12.6867 40.6013 12.4627 40.368 12.164 40.2C11.8653 40.0133 11.5013 39.92 11.072 39.92C10.4 39.92 9.88667 40.116 9.532 40.508C9.17733 40.8813 9 41.3293 9 41.852C9 42.4307 9.24267 43.0093 9.728 43.588C10.232 44.148 10.8293 44.8107 11.52 45.576L21.88 57H17.708L8.244 46.5ZM37.7936 47.2C37.7936 48.488 38.083 49.6173 38.6616 50.588C39.259 51.54 40.0336 52.2773 40.9856 52.8C41.9376 53.304 42.9736 53.556 44.0936 53.556C45.027 53.556 45.8576 53.4347 46.5856 53.192C47.3136 52.9493 47.967 52.6227 48.5456 52.212C49.143 51.8013 49.6563 51.3533 50.0856 50.868V55.376C49.283 56.0107 48.4056 56.5053 47.4536 56.86C46.5203 57.2147 45.335 57.392 43.8976 57.392C42.4043 57.392 41.0136 57.1493 39.7256 56.664C38.4563 56.1787 37.3456 55.4787 36.3936 54.564C35.4603 53.6493 34.7323 52.576 34.2096 51.344C33.7056 50.0933 33.4536 48.712 33.4536 47.2C33.4536 45.688 33.7056 44.316 34.2096 43.084C34.7323 41.8333 35.4603 40.7507 36.3936 39.836C37.3456 38.9213 38.4563 38.2213 39.7256 37.736C41.0136 37.2507 42.4043 37.008 43.8976 37.008C45.335 37.008 46.5203 37.1853 47.4536 37.54C48.4056 37.8947 49.283 38.3893 50.0856 39.024V43.532C49.6563 43.0467 49.143 42.5987 48.5456 42.188C47.967 41.7773 47.3136 41.4507 46.5856 41.208C45.8576 40.9653 45.027 40.844 44.0936 40.844C42.9736 40.844 41.9376 41.1053 40.9856 41.628C40.0336 42.132 39.259 42.86 38.6616 43.812C38.083 44.764 37.7936 45.8933 37.7936 47.2ZM53.7057 50.56C53.7057 49.216 54.0137 48.04 54.6297 47.032C55.2644 46.024 56.1137 45.24 57.1777 44.68C58.2604 44.12 59.4831 43.84 60.8457 43.84C62.2084 43.84 63.4217 44.12 64.4857 44.68C65.5684 45.24 66.4177 46.024 67.0337 47.032C67.6684 48.04 67.9857 49.216 67.9857 50.56C67.9857 51.8853 67.6684 53.0613 67.0337 54.088C66.4177 55.096 65.5684 55.88 64.4857 56.44C63.4217 57 62.2084 57.28 60.8457 57.28C59.4831 57.28 58.2604 57 57.1777 56.44C56.1137 55.88 55.2644 55.096 54.6297 54.088C54.0137 53.0613 53.7057 51.8853 53.7057 50.56ZM57.4017 50.56C57.4017 51.288 57.5511 51.932 57.8497 52.492C58.1671 53.0333 58.5871 53.4627 59.1097 53.78C59.6324 54.0787 60.2111 54.228 60.8457 54.228C61.4804 54.228 62.0591 54.0787 62.5817 53.78C63.1044 53.4627 63.5151 53.0333 63.8137 52.492C64.1311 51.932 64.2897 51.288 64.2897 50.56C64.2897 49.832 64.1311 49.188 63.8137 48.628C63.5151 48.068 63.1044 47.6387 62.5817 47.34C62.0591 47.0413 61.4804 46.892 60.8457 46.892C60.2111 46.892 59.6324 47.0413 59.1097 47.34C58.5871 47.6387 58.1671 48.068 57.8497 48.628C57.5511 49.188 57.4017 49.832 57.4017 50.56Z" fill="#697A8D" fill-opacity="0.49"/>
<path d="M9.728 28.512C8.224 28.512 6.85333 28.1387 5.616 27.392C4.38933 26.6347 3.41333 25.6 2.688 24.288C1.97333 22.9653 1.616 21.4613 1.616 19.776C1.616 18.1333 1.96267 16.6613 2.656 15.36C3.34933 14.048 4.304 13.0133 5.52 12.256C6.74667 11.488 8.14933 11.104 9.728 11.104C10.8907 11.104 11.9733 11.328 12.976 11.776C13.9893 12.2133 14.816 12.8267 15.456 13.616V11.616H20.368V28H15.456V25.84C14.7093 26.704 13.8507 27.3653 12.88 27.824C11.9093 28.2827 10.8587 28.512 9.728 28.512ZM11.184 24.336C12.0373 24.336 12.7947 24.144 13.456 23.76C14.1173 23.3653 14.6347 22.8267 15.008 22.144C15.3813 21.4613 15.568 20.6827 15.568 19.808C15.568 18.9227 15.376 18.144 14.992 17.472C14.6187 16.7893 14.1013 16.256 13.44 15.872C12.7893 15.4773 12.0373 15.28 11.184 15.28C10.3413 15.28 9.58933 15.4773 8.928 15.872C8.26667 16.256 7.744 16.7893 7.36 17.472C6.976 18.1547 6.784 18.9333 6.784 19.808C6.784 20.6827 6.97067 21.4613 7.344 22.144C7.728 22.8267 8.25067 23.3653 8.912 23.76C9.57333 24.144 10.3307 24.336 11.184 24.336ZM27.106 28V11.616H32.018V13.44C32.8287 12.6293 33.634 12.0373 34.434 11.664C35.234 11.2907 36.098 11.104 37.026 11.104C38.2847 11.104 39.4207 11.3867 40.434 11.952C41.4473 12.5173 42.1727 13.2747 42.61 14.224C43.41 13.1893 44.2687 12.4107 45.186 11.888C46.1033 11.3653 47.154 11.104 48.338 11.104C49.522 11.104 50.5727 11.3493 51.49 11.84C52.4073 12.3307 53.1273 13.0293 53.65 13.936C54.1833 14.832 54.45 15.8933 54.45 17.12V28H49.538V18.464C49.538 17.3973 49.2607 16.56 48.706 15.952C48.1513 15.3333 47.41 15.024 46.482 15.024C45.842 15.024 45.2767 15.1573 44.786 15.424C44.306 15.6907 43.9273 16.048 43.65 16.496C43.3727 16.944 43.234 17.44 43.234 17.984V28H38.322V18.368C38.322 17.3547 38.05 16.544 37.506 15.936C36.9727 15.328 36.2313 15.024 35.282 15.024C34.6527 15.024 34.0873 15.1573 33.586 15.424C33.0953 15.6907 32.7113 16.0533 32.434 16.512C32.1567 16.9707 32.018 17.4773 32.018 18.032V28H27.106ZM67.773 28.512C66.269 28.512 64.8983 28.1387 63.661 27.392C62.4343 26.6347 61.4583 25.6 60.733 24.288C60.0183 22.9653 59.661 21.4613 59.661 19.776C59.661 18.1333 60.0077 16.6613 60.701 15.36C61.3943 14.048 62.349 13.0133 63.565 12.256C64.7917 11.488 66.1943 11.104 67.773 11.104C68.9357 11.104 70.0183 11.328 71.021 11.776C72.0343 12.2133 72.861 12.8267 73.501 13.616V11.616H78.413V28H73.501V25.84C72.7543 26.704 71.8957 27.3653 70.925 27.824C69.9543 28.2827 68.9037 28.512 67.773 28.512ZM69.229 24.336C70.0823 24.336 70.8397 24.144 71.501 23.76C72.1623 23.3653 72.6797 22.8267 73.053 22.144C73.4263 21.4613 73.613 20.6827 73.613 19.808C73.613 18.9227 73.421 18.144 73.037 17.472C72.6637 16.7893 72.1463 16.256 71.485 15.872C70.8343 15.4773 70.0823 15.28 69.229 15.28C68.3863 15.28 67.6343 15.4773 66.973 15.872C66.3117 16.256 65.789 16.7893 65.405 17.472C65.021 18.1547 64.829 18.9333 64.829 19.808C64.829 20.6827 65.0157 21.4613 65.389 22.144C65.773 22.8267 66.2957 23.3653 66.957 23.76C67.6183 24.144 68.3757 24.336 69.229 24.336ZM91.935 28.512C90.4523 28.512 89.0977 28.144 87.871 27.408C86.655 26.6613 85.6843 25.632 84.959 24.32C84.2337 23.008 83.871 21.504 83.871 19.808C83.871 18.144 84.223 16.6613 84.927 15.36C85.631 14.048 86.5963 13.0133 87.823 12.256C89.0603 11.488 90.4737 11.104 92.063 11.104C93.215 11.104 94.2817 11.328 95.263 11.776C96.2443 12.2133 97.0603 12.8267 97.711 13.616V0.48H102.623V28H97.711V25.84C96.9857 26.6827 96.127 27.3387 95.135 27.808C94.143 28.2773 93.0763 28.512 91.935 28.512ZM93.407 24.336C94.271 24.336 95.0337 24.144 95.695 23.76C96.3563 23.3653 96.8737 22.8267 97.247 22.144C97.631 21.4613 97.823 20.688 97.823 19.824C97.823 18.9493 97.631 18.1707 97.247 17.488C96.8737 16.8053 96.3563 16.2667 95.695 15.872C95.0337 15.4773 94.2763 15.28 93.423 15.28C92.5803 15.28 91.8283 15.4773 91.167 15.872C90.5163 16.2667 89.999 16.8107 89.615 17.504C89.231 18.1867 89.039 18.9653 89.039 19.84C89.039 20.704 89.2257 21.4773 89.599 22.16C89.9723 22.832 90.4897 23.3653 91.151 23.76C91.8123 24.144 92.5643 24.336 93.407 24.336ZM117.233 28.512C115.462 28.512 113.873 28.1333 112.465 27.376C111.068 26.608 109.958 25.568 109.137 24.256C108.316 22.944 107.905 21.4613 107.905 19.808C107.905 18.592 108.134 17.456 108.593 16.4C109.062 15.344 109.713 14.4213 110.545 13.632C111.377 12.832 112.342 12.2133 113.441 11.776C114.54 11.328 115.729 11.104 117.009 11.104C118.716 11.104 120.209 11.4613 121.489 12.176C122.78 12.88 123.782 13.8613 124.497 15.12C125.222 16.3787 125.585 17.8453 125.585 19.52C125.585 19.6587 125.58 19.7813 125.569 19.888C125.569 19.984 125.553 20.1707 125.521 20.448H112.961C112.961 21.28 113.148 22.0053 113.521 22.624C113.905 23.2427 114.438 23.728 115.121 24.08C115.804 24.4213 116.598 24.592 117.505 24.592C118.358 24.592 119.11 24.4267 119.761 24.096C120.422 23.7653 121.057 23.2373 121.665 22.512L125.201 24.288C124.433 25.6107 123.345 26.6453 121.937 27.392C120.529 28.1387 118.961 28.512 117.233 28.512ZM113.137 17.728H120.753C120.646 17.0987 120.417 16.5547 120.065 16.096C119.724 15.6373 119.286 15.2853 118.753 15.04C118.22 14.7947 117.617 14.672 116.945 14.672C116.23 14.672 115.601 14.7947 115.057 15.04C114.513 15.2853 114.076 15.6373 113.745 16.096C113.414 16.5547 113.212 17.0987 113.137 17.728ZM139.009 28.512C136.023 28.512 133.868 27.92 132.545 26.736C131.223 25.552 130.561 23.616 130.561 20.928V11.616H135.473V19.776C135.473 21.504 135.74 22.7253 136.273 23.44C136.817 24.1547 137.729 24.512 139.009 24.512C140.311 24.512 141.223 24.1547 141.745 23.44C142.279 22.7253 142.545 21.504 142.545 19.776V11.616H147.457V20.928C147.457 23.616 146.796 25.552 145.473 26.736C144.161 27.92 142.007 28.512 139.009 28.512ZM158.327 28.512C156.941 28.512 155.698 28.2933 154.599 27.856C153.511 27.4187 152.605 26.7787 151.879 25.936L153.943 22.64C154.626 23.3653 155.341 23.92 156.087 24.304C156.834 24.688 157.581 24.88 158.327 24.88C158.743 24.88 159.101 24.8107 159.399 24.672C159.709 24.5333 159.949 24.336 160.119 24.08C160.301 23.8133 160.391 23.4933 160.391 23.12C160.391 22.6933 160.269 22.3573 160.023 22.112C159.789 21.8667 159.426 21.6427 158.935 21.44C158.445 21.2267 157.81 20.96 157.031 20.64C156.37 20.3627 155.735 20.048 155.127 19.696C154.519 19.344 154.023 18.896 153.639 18.352C153.266 17.808 153.079 17.12 153.079 16.288C153.079 15.2747 153.362 14.384 153.927 13.616C154.493 12.8373 155.271 12.2293 156.263 11.792C157.266 11.3547 158.418 11.136 159.719 11.136C160.53 11.136 161.378 11.2587 162.263 11.504C163.159 11.7493 164.114 12.1227 165.127 12.624L163.447 15.776C162.071 14.8907 160.839 14.448 159.751 14.448C159.143 14.448 158.658 14.5813 158.295 14.848C157.933 15.1147 157.751 15.4507 157.751 15.856C157.751 16.24 157.938 16.576 158.311 16.864C158.695 17.1413 159.159 17.392 159.703 17.616C160.258 17.8293 160.786 18.0267 161.287 18.208C162.109 18.5067 162.834 18.8373 163.463 19.2C164.103 19.5627 164.605 20.0373 164.967 20.624C165.33 21.2 165.511 21.9733 165.511 22.944C165.511 24.128 165.223 25.136 164.647 25.968C164.082 26.7893 163.261 27.4187 162.183 27.856C161.117 28.2933 159.831 28.512 158.327 28.512Z" fill="#697A8D"/>
</svg>
